# xmcd CD database file
#
# Track frame offsets:
#	150
#	34772
#	62747
#	97695
#	117720
#	144192
#	169842
#	199465
#
# Disc length: 3069 seconds
#
# Revision: 0
# Processed by: cddbd v1.5.1PL0 Copyright (c) Steve Scherf et al.
# Submitted via: CDex 1.51
#
DISCID=6d0bfb08
DTITLE=Satwinder - Tera Nachna Bara Kamaal
DYEAR=1997
DGENRE=Punjabi Bhangra
TTITLE0=Pata Lagg Jauga
TTITLE1=Vatna Di Gall
TTITLE2=Jatt Di Pakki Fasal
TTITLE3=Kurhi Khanne Wali
TTITLE4=Ruk Jao Sohneyo
TTITLE5=Sharab Vechdi
TTITLE6=Malak Hattiyan Dee
TTITLE7=Tera Nachna Bara Kamaal
EXTD=YEAR: 1997
EXTT0=
EXTT1=
EXTT2=
EXTT3=
EXTT4=
EXTT5=
EXTT6=
EXTT7=
PLAYORDER=
